<svg xmlns="http://www.w3.org/2000/svg" viewBox="0 0 24 24" fill="none" stroke="#32302F" stroke-width="2" stroke-linecap="round" stroke-linejoin="round"><path d="M14 9V5a3 3 0 00-6 0v4"/><path d="M2 14.5A2.5 2.5 0 004.5 17h1A2.5 2.5 0 008 14.5V10H4.5A2.5 2.5 0 002 12.5v2z"/><path d="M8 10a2.5 2.5 0 012.5-2.5H13A2.5 2.5 0 0115.5 10v4.5a2.5 2.5 0 01-2.5 2.5h-1a2.5 2.5 0 01-2.5-2.5V10z"/><path d="M15.5 12.5a2.5 2.5 0 012.5-2.5h2.5A2.5 2.5 0 0123 12.5V15a2.5 2.5 0 01-2.5 2.5H18a2.5 2.5 0 01-2.5-2.5v-2.5z"/></svg>
