<?xml version="1.0" encoding="UTF-8"?>
<svg xmlns="http://www.w3.org/2000/svg" viewBox="0 0 280 56" width="280" height="56" fill="none">
  <style>
    @import url('https://fonts.googleapis.com/css2?family=Lora:wght@400&amp;display=swap');
  </style>
  <!-- Icon -->
  <g transform="translate(0, 0) scale(1.1667)">
    <path d="M6 20C6 12 12 6 22 6H26C36 6 42 12 42 20C42 28 36 34 26 34H20L12 40V34C8.5 32 6 27 6 20Z" stroke="#FFFFFF" stroke-width="2.2" stroke-linecap="round" stroke-linejoin="round"/>
    <path d="M15 21C15 21 17 14 19.5 14C22 14 22 28 24.5 28C27 28 27 16 29 16C31 16 32 22 33 22" stroke="#FFFFFF" stroke-width="2" stroke-linecap="round" stroke-linejoin="round"/>
  </g>
  <!-- Wordmark -->
  <text x="68" y="38" font-family="'Lora', Georgia, serif" font-size="36" font-weight="400" fill="#FFFFFF" letter-spacing="-0.5">RevWhisper</text>
</svg>
