<?xml version="1.0" encoding="UTF-8"?>
<svg xmlns="http://www.w3.org/2000/svg" viewBox="0 0 120 120" width="120" height="120">
  <rect width="120" height="120" fill="#FFFFFF"/>
  <g transform="translate(60, 58) scale(1.2) translate(-24, -24)">
    <path d="M6 20C6 12 12 6 22 6H26C36 6 42 12 42 20C42 28 36 34 26 34H20L12 40V34C8.5 32 6 27 6 20Z" stroke="#4A6741" stroke-width="2" stroke-linecap="round" stroke-linejoin="round" fill="none"/>
    <path d="M15 21C15 21 17 14 19.5 14C22 14 22 28 24.5 28C27 28 27 16 29 16C31 16 32 22 33 22" stroke="#4A6741" stroke-width="2.2" stroke-linecap="round" stroke-linejoin="round" fill="none"/>
  </g>
</svg>
