<?xml version="1.0" encoding="UTF-8"?>
<svg xmlns="http://www.w3.org/2000/svg" viewBox="0 0 1080 1920" width="1080" height="1920">
  <style>@import url('https://fonts.googleapis.com/css2?family=Lora:wght@400;600&amp;family=DM+Sans:wght@300;400&amp;family=DM+Mono:wght@400&amp;display=swap');</style>

  <!-- Background -->
  <rect width="1080" height="1920" fill="#32302F"/>

  <!-- Supertitle -->
  <text x="540" y="740" font-family="'DM Mono', monospace" font-size="14" fill="#FFFFFF" opacity="0.5" letter-spacing="3" text-anchor="middle" text-transform="uppercase">
    THE OTA WHISPERER
  </text>
  <text x="540" y="770" font-family="'DM Sans', sans-serif" font-size="14" fill="#FFFFFF" opacity="0.3" text-anchor="middle">
    with Alex
  </text>

  <!-- Heading -->
  <text x="540" y="860" font-family="'Lora', serif" font-size="42" font-weight="600" fill="#FFFFFF" letter-spacing="-0.5" text-anchor="middle">
    <tspan x="540" dy="0">"This is what I see</tspan>
    <tspan x="540" dy="56">wrong with your</tspan>
    <tspan x="540" dy="56">listing."</tspan>
  </text>

  <!-- Play button -->
  <circle cx="540" cy="1120" r="50" fill="none" stroke="#FFFFFF" stroke-width="2"/>
  <polygon points="528,1098 528,1142 564,1120" fill="#FFFFFF"/>

  <!-- Footer -->
  <text x="540" y="1840" font-family="'DM Mono', monospace" font-size="12" fill="#FFFFFF" opacity="0.25" letter-spacing="3" text-anchor="middle">
    REEL
  </text>

  <!-- Logo bottom-right -->
  <g transform="translate(980, 1860) scale(0.4167)" opacity="0.12">
    <path d="M6 20C6 12 12 6 22 6H26C36 6 42 12 42 20C42 28 36 34 26 34H20L12 40V34C8.5 32 6 27 6 20Z" fill="none" stroke="#FFFFFF" stroke-width="2.2"/>
    <path d="M15 21C15 21 17 14 19.5 14C22 14 22 28 24.5 28C27 28 27 16 29 16C31 16 32 22 33 22" fill="none" stroke="#FFFFFF" stroke-width="2" stroke-linecap="round"/>
  </g>
</svg>